<?xml version="1.0" encoding="iso-8859-1"?>
<!-- Generator: Adobe Illustrator 19.0.0, SVG Export Plug-In . SVG Version: 6.00 Build 0)  -->
<svg version="1.1" id="Layer_1" xmlns="http://www.w3.org/2000/svg" xmlns:xlink="http://www.w3.org/1999/xlink" x="0px" y="0px"
	 viewBox="0 0 512 512" style="enable-background:new 0 0 512 512;" xml:space="preserve">
<path style="fill:#F9AA0C;" d="M418.133,303.592c-12.96,0-23.467-10.507-23.467-23.467V169.192
	c0-43.524-35.409-78.933-78.933-78.933H196.267c-43.524,0-78.933,35.409-78.933,78.933v110.933c0,12.96-10.507,23.467-23.467,23.467
	S70.4,293.085,70.4,280.125V169.192c0-69.403,56.464-125.867,125.867-125.867h119.467c69.403,0,125.867,56.464,125.867,125.867
	v110.933C441.6,293.086,431.093,303.592,418.133,303.592z"/>
<g>
	<path style="fill:#EA802C;" d="M70.4,169.192v110.933c0,12.96,10.507,23.467,23.467,23.467s23.467-10.507,23.467-23.467V169.192
		c0-5.86,0.661-11.567,1.879-17.067H71.562C70.801,157.708,70.4,163.404,70.4,169.192z"/>
	<path style="fill:#EA802C;" d="M392.787,152.125c1.217,5.5,1.879,11.206,1.879,17.067v110.933c0,12.96,10.507,23.467,23.467,23.467
		s23.467-10.507,23.467-23.467V169.192c0-5.788-0.401-11.484-1.162-17.067H392.787z"/>
</g>
<path style="fill:#90BF2C;" d="M256,510.525c127.247,0,230.4-103.153,230.4-230.4H25.6C25.6,407.372,128.753,510.525,256,510.525z"
	/>
<path style="fill:#72A938;" d="M85.333,280.125H25.6c0,127.247,103.153,230.4,230.4,230.4c10.122,0,20.09-0.658,29.867-1.924
	C172.731,493.957,85.333,397.25,85.333,280.125z"/>
<path style="fill:#40CACF;" d="M51.2,271.592c0-37.702,30.564-102.4,68.267-102.4s68.267,64.698,68.267,102.4
	s-30.564,68.267-68.267,68.267S51.2,309.295,51.2,271.592z"/>
<path style="fill:#3AB0B0;" d="M136.533,322.792c-37.702,0-68.267-30.564-68.267-68.267c0-22.587,10.972-54.858,27.874-77.106
	C69.925,196.038,51.2,242.082,51.2,271.592c0,37.702,30.564,68.267,68.267,68.267c23.211,0,43.703-11.594,56.037-29.296
	C164.452,318.264,151.025,322.792,136.533,322.792z"/>
<ellipse style="fill:#99EFF2;" cx="157.867" cy="241.728" rx="12.8" ry="21.333"/>
<path style="fill:#F5E038;" d="M187.733,271.592c0-37.702,30.564-102.4,68.267-102.4s68.267,64.698,68.267,102.4
	S293.702,339.858,256,339.858S187.733,309.295,187.733,271.592z"/>
<path style="fill:#F9C900;" d="M273.067,322.792c-37.702,0-68.267-30.564-68.267-68.267c0-22.587,10.972-54.858,27.874-77.106
	c-26.215,18.619-44.941,64.663-44.941,94.173c0,37.702,30.564,68.267,68.267,68.267c23.211,0,43.703-11.594,56.037-29.296
	C300.986,318.264,287.558,322.792,273.067,322.792z"/>
<ellipse style="fill:#FFF2BA;" cx="294.4" cy="241.728" rx="12.8" ry="21.333"/>
<path style="fill:#40CACF;" d="M324.267,271.592c0-37.702,30.564-102.4,68.267-102.4s68.267,64.698,68.267,102.4
	s-30.564,68.267-68.267,68.267S324.267,309.295,324.267,271.592z"/>
<path style="fill:#3AB0B0;" d="M409.6,322.792c-37.702,0-68.267-30.564-68.267-68.267c0-22.587,10.972-54.858,27.874-77.106
	c-26.215,18.619-44.941,64.663-44.941,94.173c0,37.702,30.564,68.267,68.267,68.267c23.211,0,43.703-11.594,56.037-29.296
	C437.519,318.264,424.092,322.792,409.6,322.792z"/>
<ellipse style="fill:#99EFF2;" cx="430.933" cy="241.728" rx="12.8" ry="21.333"/>
<path style="fill:#F5E038;" d="M494.933,339.858H17.067C7.641,339.858,0,332.218,0,322.792v-34.133
	c0-9.426,7.641-17.067,17.067-17.067h477.867c9.426,0,17.067,7.641,17.067,17.067v34.133
	C512,332.218,504.359,339.858,494.933,339.858z"/>
<path style="fill:#F9AA0C;" d="M17.067,271.592C7.641,271.592,0,279.232,0,288.658v34.133c0,9.426,7.641,17.067,17.067,17.067h51.2
	v-68.267H17.067z"/>
<g>
	<rect x="68.267" y="271.595" style="fill:#F9C900;" width="307.2" height="68.267"/>
	<path style="fill:#F9C900;" d="M494.933,271.592H427.2v68.267h67.733c9.426,0,17.067-7.641,17.067-17.067v-34.133
		C512,279.233,504.359,271.592,494.933,271.592z"/>
</g>
<path style="fill:#F36280;" d="M340.922,136.119L256,83.858V49.725l85.775-46.187c11.371-6.122,25.158,2.113,25.158,15.027v103.018
	C366.933,134.936,352.293,143.116,340.922,136.119z"/>
<path style="fill:#E05161;" d="M324.012,56.189c-1.142-4.573-5.775-7.354-10.349-6.209l-34.133,8.533l-1.746,24.445l34.133,17.067
	c4.42,2.21,9.937,0.094,11.751-4.496c1.605-4.063-0.21-8.815-4.119-10.768L294.671,72.32l23.133-5.783
	C322.375,65.394,325.155,60.762,324.012,56.189z"/>
<path style="fill:#F36280;" d="M171.078,136.119L256,83.858V49.725L170.225,3.538c-11.371-6.122-25.158,2.113-25.158,15.027v103.018
	C145.067,134.936,159.707,143.116,171.078,136.119z"/>
<g>
	<path style="fill:#E05161;" d="M198.336,49.98c-4.572-1.14-9.205,1.637-10.349,6.209c-1.142,4.573,1.637,9.205,6.209,10.349
		l23.133,5.783L192.45,84.761c-3.903,1.951-5.733,6.709-4.119,10.768c1.824,4.586,7.324,6.71,11.751,4.496l34.133-17.067
		l-1.746-24.445L198.336,49.98z"/>
	<circle style="fill:#E05161;" cx="256" cy="66.795" r="34.133"/>
</g>
<g>
</g>
<g>
</g>
<g>
</g>
<g>
</g>
<g>
</g>
<g>
</g>
<g>
</g>
<g>
</g>
<g>
</g>
<g>
</g>
<g>
</g>
<g>
</g>
<g>
</g>
<g>
</g>
<g>
</g>
</svg>
